<svg width="16" height="16" viewBox="0 0 16 16" fill="none" xmlns="http://www.w3.org/2000/svg">
<path d="M12.5168 15.9048L10.0337 13.4222C8.91095 12.2997 7.08851 12.2997 5.96576 13.4222L3.48269 15.9048C3.35577 16.0317 3.15075 16.0317 3.02383 15.9048L2.12888 15.01C2.00196 14.8831 2.00196 14.6781 2.12888 14.5512L4.61195 12.0687C6.4832 10.1978 9.51952 10.1978 11.3908 12.0687L13.8738 14.5512C14.0008 14.6781 14.0008 14.8831 13.8738 15.01L12.9789 15.9048C12.852 16.0317 12.6469 16.0317 12.52 15.9048H12.5168Z" fill="white"/>
<path d="M14.5511 13.8712L12.068 11.3886C10.1967 9.51774 10.1967 6.48205 12.068 4.61118L14.5511 2.12862C14.678 2.00172 14.883 2.00172 15.0099 2.12862L15.9049 3.02338C16.0318 3.15028 16.0318 3.35526 15.9049 3.48215L13.4218 5.96472C12.299 7.08724 12.299 8.9093 13.4218 10.0318L15.9049 12.5144C16.0318 12.6413 16.0318 12.8463 15.9049 12.9732L15.0099 13.8679C14.883 13.9948 14.678 13.9948 14.5511 13.8679V13.8712Z" fill="white"/>
<path d="M8.00299 5.33361C6.7761 5.33361 5.54921 4.86508 4.61195 3.93127L2.12888 1.4487C2.00196 1.32181 2.00196 1.11683 2.12888 0.989934L3.02708 0.0951704C3.154 -0.0317235 3.35903 -0.0317235 3.48595 0.0951704L5.96902 2.57773C7.09177 3.70026 8.91421 3.70026 10.037 2.57773L12.5168 0.0951704C12.6437 -0.0317235 12.8487 -0.0317235 12.9756 0.0951704L13.8706 0.989934C13.9975 1.11683 13.9975 1.32181 13.8706 1.4487L11.3875 3.93127C10.4535 4.86508 9.22662 5.33361 7.99648 5.33361H8.00299Z" fill="white"/>
<path d="M0.993391 13.8713L0.0984441 12.9766C-0.0284756 12.8497 -0.0284756 12.6447 0.0984441 12.5178L2.58151 10.0352C3.70427 8.91272 3.70427 7.09066 2.58151 5.96813L0.0951898 3.48557C-0.0317299 3.35868 -0.0317299 3.15369 0.0951898 3.0268L0.990136 2.13204C1.11706 2.00514 1.32208 2.00514 1.449 2.13204L3.93207 4.6146C5.80332 6.48547 5.80332 9.52116 3.93207 11.392L1.449 13.8746C1.32208 14.0015 1.11706 14.0015 0.990136 13.8746L0.993391 13.8713Z" fill="white"/>
</svg>
