<svg width="151" height="52" viewBox="0 0 151 52" fill="none" xmlns="http://www.w3.org/2000/svg">
<path d="M71.6796 33.4611L66.0006 27.1369L60.3426 33.4611H57.9949L64.7632 25.9313L58.4073 18.8668H60.8397L66.1169 24.7256L71.3623 18.8668H73.7313L67.3436 25.9313L74.1437 33.4611H71.6796Z" fill="white"/>
<path d="M76.6607 26.7244C76.8934 30.0874 79.5055 32.118 83.5771 32.118C85.8086 32.118 87.5958 31.5363 89.2562 30.2144L90.0176 31.7372C88.2303 33.1438 86.0624 33.8206 83.4608 33.8206C78.099 33.8206 74.736 30.8277 74.736 26.1745C74.736 21.5212 77.9827 18.5284 82.7945 18.5284C87.6064 18.5284 90.8214 21.6059 90.8214 26.1745V26.735H76.6713L76.6607 26.7244ZM76.6924 25.1381H88.9706C88.5265 22.1452 86.1575 20.2205 82.8474 20.2205C79.5373 20.2205 77.1366 22.1558 76.6924 25.1381Z" fill="white"/>
<path d="M93.9305 12.6589H95.8024V33.461H93.9305V12.6589Z" fill="white"/>
<path d="M114.489 12.6589V33.461H112.617V30.447C110.947 32.6996 108.863 33.8206 106.346 33.8206C102.074 33.8206 99.0808 30.6903 99.0808 26.1745C99.0808 21.6587 102.074 18.5284 106.346 18.5284C108.863 18.5284 110.947 19.6388 112.617 21.8702V12.6695H114.489V12.6589ZM112.617 23.5306C111.031 21.3626 108.958 20.2205 106.642 20.2205C103.248 20.2205 101.016 22.5894 101.016 26.1639C101.016 29.7385 103.248 32.1074 106.642 32.1074C108.958 32.1074 111.042 30.9335 112.617 28.7972V23.52V23.5306Z" fill="white"/>
<path d="M117.715 26.1639C117.715 21.5953 120.962 18.5178 125.826 18.5178C130.691 18.5178 133.938 21.5953 133.938 26.1639C133.938 30.7326 130.659 33.81 125.826 33.81C120.993 33.81 117.715 30.7008 117.715 26.1639ZM132.013 26.1639C132.013 22.6211 129.528 20.2205 125.826 20.2205C122.125 20.2205 119.619 22.6211 119.619 26.1639C119.619 29.7067 122.104 32.1074 125.826 32.1074C129.549 32.1074 132.013 29.675 132.013 26.1639Z" fill="white"/>
<path d="M147.644 32.9006C146.502 33.5139 145.275 33.81 143.837 33.81C140.759 33.81 139.183 32.3718 139.183 29.5058V20.4214H134.911V18.8668H139.183V13.5367H141.055V18.8668H147.231V20.4214H141.055V29.326C141.055 31.2613 141.996 32.1074 143.985 32.1074C145.127 32.1074 146.153 31.843 147.094 31.3142L147.654 32.9006H147.644Z" fill="white"/>
<path d="M37.2875 45.7662L31.0798 39.5585C28.2729 36.7516 23.7169 36.7516 20.91 39.5585L14.7023 45.7662C14.385 46.0835 13.8725 46.0835 13.5552 45.7662L11.3178 43.5288C11.0005 43.2115 11.0005 42.6989 11.3178 42.3816L17.5255 36.174C22.2036 31.4958 29.7943 31.4958 34.4725 36.174L40.6801 42.3816C40.9974 42.6989 40.9974 43.2115 40.6801 43.5288L38.4428 45.7662C38.1255 46.0835 37.6129 46.0835 37.2956 45.7662H37.2875Z" fill="white"/>
<path d="M42.3724 40.6812L36.1647 34.4736C31.4866 29.7954 31.4866 22.2046 36.1647 17.5265L42.3724 11.3188C42.6897 11.0015 43.2022 11.0015 43.5195 11.3188L45.7569 13.5562C46.0742 13.8735 46.0742 14.3861 45.7569 14.7034L39.5492 20.911C36.7424 23.7179 36.7424 28.274 39.5492 31.0809L45.7569 37.2886C46.0742 37.6059 46.0742 38.1184 45.7569 38.4357L43.5195 40.6731C43.2022 40.9904 42.6897 40.9904 42.3724 40.6731V40.6812Z" fill="white"/>
<path d="M26.003 19.3327C22.9358 19.3327 19.8686 18.1611 17.5255 15.8261L11.3178 9.61844C11.0005 9.30114 11.0005 8.78858 11.3178 8.47128L13.5633 6.23392C13.8806 5.91662 14.3932 5.91662 14.7105 6.23392L20.9181 12.4416C23.725 15.2485 28.2811 15.2485 31.0879 12.4416L37.2875 6.23392C37.6048 5.91662 38.1173 5.91662 38.4346 6.23392L40.672 8.47128C40.9893 8.78858 40.9893 9.30114 40.672 9.61844L34.4643 15.8261C32.1293 18.1611 29.0621 19.3327 25.9868 19.3327H26.003Z" fill="white"/>
<path d="M8.47847 40.6812L6.2411 38.4439C5.92381 38.1266 5.92381 37.614 6.2411 37.2967L12.4488 31.089C15.2556 28.2822 15.2556 23.7261 12.4488 20.9192L6.23297 14.7115C5.91567 14.3942 5.91567 13.8816 6.23297 13.5643L8.47033 11.327C8.78763 11.0097 9.30019 11.0097 9.61749 11.327L15.8251 17.5347C20.5033 22.2128 20.5033 29.8036 15.8251 34.4817L9.61749 40.6894C9.30019 41.0067 8.78763 41.0067 8.47033 40.6894L8.47847 40.6812Z" fill="white"/>
</svg>
